<svg width="1080" height="1080" viewBox="0 0 1080 1080" fill="none" xmlns="http://www.w3.org/2000/svg">
<rect width="1080" height="1080" rx="96" fill="url(#paint0_radial_40_2)"/>
<circle cx="540.5" cy="432.5" r="270.5" fill="#CB0083"/>
<circle cx="579.698" cy="458.985" r="224.946" fill="#F0009C"/>
<circle cx="605.477" cy="496.064" r="179.392" fill="#FF00A5"/>
<circle cx="639.731" cy="526.787" r="133.837" fill="#FF30B6"/>
<path d="M386.5 835.75C386.5 841.208 385.562 846.229 383.688 850.812C381.812 855.396 379.208 859.354 375.875 862.688C372.542 866.021 368.583 868.625 364 870.5C359.458 872.333 354.5 873.25 349.125 873.25H327.125C321.75 873.25 316.771 872.333 312.188 870.5C307.604 868.625 303.646 866.021 300.312 862.688C296.979 859.354 294.354 855.396 292.438 850.812C290.562 846.229 289.625 841.208 289.625 835.75V818.625C289.625 813.208 290.562 808.208 292.438 803.625C294.354 799 296.979 795.042 300.312 791.75C303.646 788.417 307.604 785.812 312.188 783.938C316.771 782.062 321.75 781.125 327.125 781.125H349.125C354.5 781.125 359.458 782.062 364 783.938C368.583 785.812 372.542 788.417 375.875 791.75C379.208 795.042 381.812 799 383.688 803.625C385.562 808.208 386.5 813.208 386.5 818.625V835.75ZM370.25 818.625C370.25 815.417 369.729 812.521 368.688 809.938C367.688 807.312 366.25 805.083 364.375 803.25C362.542 801.375 360.312 799.938 357.688 798.938C355.104 797.896 352.25 797.375 349.125 797.375H327.125C323.958 797.375 321.062 797.896 318.438 798.938C315.854 799.938 313.625 801.375 311.75 803.25C309.875 805.083 308.417 807.312 307.375 809.938C306.375 812.521 305.875 815.417 305.875 818.625V835.75C305.875 838.958 306.375 841.875 307.375 844.5C308.417 847.083 309.875 849.312 311.75 851.188C313.625 853.021 315.854 854.458 318.438 855.5C321.062 856.5 323.958 857 327.125 857H349C352.167 857 355.042 856.5 357.625 855.5C360.25 854.458 362.5 853.021 364.375 851.188C366.25 849.312 367.688 847.083 368.688 844.5C369.729 841.875 370.25 838.958 370.25 835.75V818.625ZM482.812 872H424.188C422.688 872 421.062 871.833 419.312 871.5C417.604 871.125 415.896 870.562 414.188 869.812C412.521 869.062 410.917 868.104 409.375 866.938C407.833 865.729 406.458 864.292 405.25 862.625C404.083 860.917 403.146 858.958 402.438 856.75C401.729 854.5 401.375 851.979 401.375 849.188V805.188C401.375 803.688 401.542 802.083 401.875 800.375C402.25 798.625 402.812 796.917 403.562 795.25C404.312 793.542 405.292 791.917 406.5 790.375C407.708 788.833 409.146 787.479 410.812 786.312C412.521 785.104 414.479 784.146 416.688 783.438C418.896 782.729 421.396 782.375 424.188 782.375H482.812V798.625H424.188C422.062 798.625 420.438 799.188 419.312 800.312C418.188 801.438 417.625 803.104 417.625 805.312V849.188C417.625 851.271 418.188 852.896 419.312 854.062C420.479 855.188 422.104 855.75 424.188 855.75H482.812V872ZM579.188 798.625H543.375V872H527.125V798.625H491.25V782.375H579.188V798.625ZM684 835.75C684 841.208 683.062 846.229 681.188 850.812C679.312 855.396 676.708 859.354 673.375 862.688C670.042 866.021 666.083 868.625 661.5 870.5C656.958 872.333 652 873.25 646.625 873.25H624.625C619.25 873.25 614.271 872.333 609.688 870.5C605.104 868.625 601.146 866.021 597.812 862.688C594.479 859.354 591.854 855.396 589.938 850.812C588.062 846.229 587.125 841.208 587.125 835.75V818.625C587.125 813.208 588.062 808.208 589.938 803.625C591.854 799 594.479 795.042 597.812 791.75C601.146 788.417 605.104 785.812 609.688 783.938C614.271 782.062 619.25 781.125 624.625 781.125H646.625C652 781.125 656.958 782.062 661.5 783.938C666.083 785.812 670.042 788.417 673.375 791.75C676.708 795.042 679.312 799 681.188 803.625C683.062 808.208 684 813.208 684 818.625V835.75ZM667.75 818.625C667.75 815.417 667.229 812.521 666.188 809.938C665.188 807.312 663.75 805.083 661.875 803.25C660.042 801.375 657.812 799.938 655.188 798.938C652.604 797.896 649.75 797.375 646.625 797.375H624.625C621.458 797.375 618.562 797.896 615.938 798.938C613.354 799.938 611.125 801.375 609.25 803.25C607.375 805.083 605.917 807.312 604.875 809.938C603.875 812.521 603.375 815.417 603.375 818.625V835.75C603.375 838.958 603.875 841.875 604.875 844.5C605.917 847.083 607.375 849.312 609.25 851.188C611.125 853.021 613.354 854.458 615.938 855.5C618.562 856.5 621.458 857 624.625 857H646.5C649.667 857 652.542 856.5 655.125 855.5C657.75 854.458 660 853.021 661.875 851.188C663.75 849.312 665.188 847.083 666.188 844.5C667.229 841.875 667.75 838.958 667.75 835.75V818.625ZM789.625 812.5C789.625 816.208 789.167 819.521 788.25 822.438C787.333 825.354 786.083 827.938 784.5 830.188C782.958 832.396 781.167 834.292 779.125 835.875C777.083 837.458 774.938 838.771 772.688 839.812C770.479 840.812 768.229 841.542 765.938 842C763.688 842.458 761.562 842.688 759.562 842.688L793.5 872H768.375L734.5 842.688H722.812V826.438H759.562C761.604 826.271 763.458 825.854 765.125 825.188C766.833 824.479 768.292 823.542 769.5 822.375C770.75 821.208 771.708 819.812 772.375 818.188C773.042 816.521 773.375 814.625 773.375 812.5V802.25C773.375 801.333 773.25 800.646 773 800.188C772.792 799.688 772.5 799.333 772.125 799.125C771.792 798.875 771.417 798.729 771 798.688C770.625 798.646 770.271 798.625 769.938 798.625H716.312V872H700.062V790.562C700.062 789.438 700.271 788.375 700.688 787.375C701.104 786.375 701.667 785.5 702.375 784.75C703.125 784 704 783.417 705 783C706 782.583 707.083 782.375 708.25 782.375H769.938C773.562 782.375 776.625 783.042 779.125 784.375C781.625 785.667 783.646 787.312 785.188 789.312C786.771 791.271 787.896 793.396 788.562 795.688C789.271 797.979 789.625 800.125 789.625 802.125V812.5Z" fill="white"/>
<defs>
<radialGradient id="paint0_radial_40_2" cx="0" cy="0" r="1" gradientUnits="userSpaceOnUse" gradientTransform="translate(540 540) rotate(90) scale(540)">
<stop stop-color="#2000D5"/>
<stop offset="1" stop-color="#10006D"/>
</radialGradient>
</defs>
</svg>
