<svg width="2332" height="1080" viewBox="0 0 2332 1080" fill="none" xmlns="http://www.w3.org/2000/svg">
<circle cx="567.5" cy="540.5" r="367.5" fill="#CB0083"/>
<circle cx="620.754" cy="576.482" r="305.61" fill="#F0009C"/>
<circle cx="655.777" cy="626.858" r="243.721" fill="#FF00A5"/>
<circle cx="702.314" cy="668.597" r="181.831" fill="#FF30B6"/>
<path d="M1340 557.5C1340 568.417 1338.12 578.458 1334.38 587.625C1330.62 596.792 1325.42 604.708 1318.75 611.375C1312.08 618.042 1304.17 623.25 1295 627C1285.92 630.667 1276 632.5 1265.25 632.5H1221.25C1210.5 632.5 1200.54 630.667 1191.38 627C1182.21 623.25 1174.29 618.042 1167.62 611.375C1160.96 604.708 1155.71 596.792 1151.88 587.625C1148.12 578.458 1146.25 568.417 1146.25 557.5V523.25C1146.25 512.417 1148.12 502.417 1151.88 493.25C1155.71 484 1160.96 476.083 1167.62 469.5C1174.29 462.833 1182.21 457.625 1191.38 453.875C1200.54 450.125 1210.5 448.25 1221.25 448.25H1265.25C1276 448.25 1285.92 450.125 1295 453.875C1304.17 457.625 1312.08 462.833 1318.75 469.5C1325.42 476.083 1330.62 484 1334.38 493.25C1338.12 502.417 1340 512.417 1340 523.25V557.5ZM1307.5 523.25C1307.5 516.833 1306.46 511.042 1304.38 505.875C1302.38 500.625 1299.5 496.167 1295.75 492.5C1292.08 488.75 1287.62 485.875 1282.38 483.875C1277.21 481.792 1271.5 480.75 1265.25 480.75H1221.25C1214.92 480.75 1209.12 481.792 1203.88 483.875C1198.71 485.875 1194.25 488.75 1190.5 492.5C1186.75 496.167 1183.83 500.625 1181.75 505.875C1179.75 511.042 1178.75 516.833 1178.75 523.25V557.5C1178.75 563.917 1179.75 569.75 1181.75 575C1183.83 580.167 1186.75 584.625 1190.5 588.375C1194.25 592.042 1198.71 594.917 1203.88 597C1209.12 599 1214.92 600 1221.25 600H1265C1271.33 600 1277.08 599 1282.25 597C1287.5 594.917 1292 592.042 1295.75 588.375C1299.5 584.625 1302.38 580.167 1304.38 575C1306.46 569.75 1307.5 563.917 1307.5 557.5V523.25ZM1532.62 630H1415.38C1412.38 630 1409.12 629.667 1405.62 629C1402.21 628.25 1398.79 627.125 1395.38 625.625C1392.04 624.125 1388.83 622.208 1385.75 619.875C1382.67 617.458 1379.92 614.583 1377.5 611.25C1375.17 607.833 1373.29 603.917 1371.88 599.5C1370.46 595 1369.75 589.958 1369.75 584.375V496.375C1369.75 493.375 1370.08 490.167 1370.75 486.75C1371.5 483.25 1372.62 479.833 1374.12 476.5C1375.62 473.083 1377.58 469.833 1380 466.75C1382.42 463.667 1385.29 460.958 1388.62 458.625C1392.04 456.208 1395.96 454.292 1400.38 452.875C1404.79 451.458 1409.79 450.75 1415.38 450.75H1532.62V483.25H1415.38C1411.12 483.25 1407.88 484.375 1405.62 486.625C1403.38 488.875 1402.25 492.208 1402.25 496.625V584.375C1402.25 588.542 1403.38 591.792 1405.62 594.125C1407.96 596.375 1411.21 597.5 1415.38 597.5H1532.62V630ZM1725.38 483.25H1653.75V630H1621.25V483.25H1549.5V450.75H1725.38V483.25ZM1935 557.5C1935 568.417 1933.12 578.458 1929.38 587.625C1925.62 596.792 1920.42 604.708 1913.75 611.375C1907.08 618.042 1899.17 623.25 1890 627C1880.92 630.667 1871 632.5 1860.25 632.5H1816.25C1805.5 632.5 1795.54 630.667 1786.38 627C1777.21 623.25 1769.29 618.042 1762.62 611.375C1755.96 604.708 1750.71 596.792 1746.88 587.625C1743.12 578.458 1741.25 568.417 1741.25 557.5V523.25C1741.25 512.417 1743.12 502.417 1746.88 493.25C1750.71 484 1755.96 476.083 1762.62 469.5C1769.29 462.833 1777.21 457.625 1786.38 453.875C1795.54 450.125 1805.5 448.25 1816.25 448.25H1860.25C1871 448.25 1880.92 450.125 1890 453.875C1899.17 457.625 1907.08 462.833 1913.75 469.5C1920.42 476.083 1925.62 484 1929.38 493.25C1933.12 502.417 1935 512.417 1935 523.25V557.5ZM1902.5 523.25C1902.5 516.833 1901.46 511.042 1899.38 505.875C1897.38 500.625 1894.5 496.167 1890.75 492.5C1887.08 488.75 1882.62 485.875 1877.38 483.875C1872.21 481.792 1866.5 480.75 1860.25 480.75H1816.25C1809.92 480.75 1804.12 481.792 1798.88 483.875C1793.71 485.875 1789.25 488.75 1785.5 492.5C1781.75 496.167 1778.83 500.625 1776.75 505.875C1774.75 511.042 1773.75 516.833 1773.75 523.25V557.5C1773.75 563.917 1774.75 569.75 1776.75 575C1778.83 580.167 1781.75 584.625 1785.5 588.375C1789.25 592.042 1793.71 594.917 1798.88 597C1804.12 599 1809.92 600 1816.25 600H1860C1866.33 600 1872.08 599 1877.25 597C1882.5 594.917 1887 592.042 1890.75 588.375C1894.5 584.625 1897.38 580.167 1899.38 575C1901.46 569.75 1902.5 563.917 1902.5 557.5V523.25ZM2146.25 511C2146.25 518.417 2145.33 525.042 2143.5 530.875C2141.67 536.708 2139.17 541.875 2136 546.375C2132.92 550.792 2129.33 554.583 2125.25 557.75C2121.17 560.917 2116.88 563.542 2112.38 565.625C2107.96 567.625 2103.46 569.083 2098.88 570C2094.38 570.917 2090.12 571.375 2086.12 571.375L2154 630H2103.75L2036 571.375H2012.62V538.875H2086.12C2090.21 538.542 2093.92 537.708 2097.25 536.375C2100.67 534.958 2103.58 533.083 2106 530.75C2108.5 528.417 2110.42 525.625 2111.75 522.375C2113.08 519.042 2113.75 515.25 2113.75 511V490.5C2113.75 488.667 2113.5 487.292 2113 486.375C2112.58 485.375 2112 484.667 2111.25 484.25C2110.58 483.75 2109.83 483.458 2109 483.375C2108.25 483.292 2107.54 483.25 2106.88 483.25H1999.62V630H1967.12V467.125C1967.12 464.875 1967.54 462.75 1968.38 460.75C1969.21 458.75 1970.33 457 1971.75 455.5C1973.25 454 1975 452.833 1977 452C1979 451.167 1981.17 450.75 1983.5 450.75H2106.88C2114.12 450.75 2120.25 452.083 2125.25 454.75C2130.25 457.333 2134.29 460.625 2137.38 464.625C2140.54 468.542 2142.79 472.792 2144.12 477.375C2145.54 481.958 2146.25 486.25 2146.25 490.25V511Z" fill="white"/>
</svg>
